<svg id="Layer_1" data-name="Layer 1" xmlns="http://www.w3.org/2000/svg" viewBox="0 0 620 120">
    <defs>
        <style>
            .cls-1 {
            fill: #3C3F41;
            }
            .cls-2 {
            fill: #aa9d33;
            }
        </style>
    </defs>
    <path
            class="cls-1"
            d="M103.66,94c-.52-13.31-1-29.15-1-45.25h-.45C98.75,62.85,94.13,78.46,90,91.43L76.54,134.26H57.24L45.41,91.81c-3.55-12.94-7.2-28.54-9.92-43h-.34C34.6,63.73,34,80.69,33.33,94.37l-2,41.69H8.3l7-109.86H48.44L59.16,62.92c3.47,12.59,6.86,26.4,9.31,39.28H69C72,89.48,75.73,75,79.45,62.75L91.12,26.2h32.49l5.9,109.86H105.36Z"
            transform="translate(-8.3 -21.72)"
    />
    <path
            class="cls-1"
            d="M193.7,136.06l-1.47-7.93h-.52c-5.21,6.36-13.35,9.72-22.79,9.72-16.24,0-25.79-11.66-25.79-24.4,0-20.79,18.6-30.64,46.82-30.6v-1c0-4.24-2.28-10.3-14.61-10.27a45.84,45.84,0,0,0-22,6l-4.57-15.87c5.56-3.18,16.43-7.15,31-7.15,26.56,0,35,15.7,35,34.43v27.82c0,7.61.4,14.84,1.27,19.32Zm-3-37.73c-13.05-.07-23.14,3.08-23.14,12.58,0,6.42,4.21,9.55,9.85,9.55a13.54,13.54,0,0,0,12.83-9.17,15.47,15.47,0,0,0,.46-4.23Z"
            transform="translate(-8.3 -21.72)"
    />
    <path class="cls-1" d="M259.9,34.14c0,6.9-5.07,12.38-13.33,12.38-7.85,0-12.94-5.48-12.91-12.38,0-7.09,5.18-12.42,13.13-12.42S259.81,27,259.9,34.14ZM234.36,136.06V56.28H259.2v79.78Z" transform="translate(-8.3 -21.72)" />
    <path
            class="cls-1"
            d="M279,81.77c0-9.94-.3-18.34-.65-25.49h21.51L301,67.34h.52c3.22-5.14,11.34-12.85,24.66-12.85,16.29,0,28.55,10.87,28.55,34.35v47.22H329.92V91.85c0-10.28-3.67-17.32-12.61-17.32-6.83,0-10.87,4.78-12.58,9.37a17.61,17.61,0,0,0-.87,6.13v46H279Z"
            transform="translate(-8.3 -21.72)"
    />
    <path
            class="cls-2"
            d="M375.43,27.71a219.28,219.28,0,0,1,33.5-2.36c20.84,0,34.46,3.84,45,11.79,11.41,8.52,18.58,21.91,18.58,41.34,0,21-7.62,35.6-18.17,44.5-11.56,9.63-29.26,14.23-50.67,14.23a210.13,210.13,0,0,1-28.22-1.62Zm24.81,89.65a55.22,55.22,0,0,0,8.66.43c22.5.2,37.29-12.23,37.29-38.5.05-22.82-13.31-34.83-34.67-34.83a54.62,54.62,0,0,0-11.28.95Z"
            transform="translate(-8.3 -21.72)"
    />
    <path class="cls-2" d="M514.18,34.14c0,6.9-5.07,12.38-13.33,12.38-7.85,0-12.94-5.48-12.91-12.38,0-7.09,5.17-12.42,13.13-12.42S514.08,27,514.18,34.14ZM488.64,136.06V56.28h24.84v79.78Z" transform="translate(-8.3 -21.72)" />
    <path class="cls-2" d="M551.8,56.28l10.73,37.1c1.94,6.73,3.32,13,4.56,19.4h.53c1.23-6.58,2.6-12.54,4.41-19.4l10.24-37.1h26.08l-29.7,79.78H553.9l-29-79.78Z" transform="translate(-8.3 -21.72)" />
</svg>
